<svg xmlns="http://www.w3.org/2000/svg" viewBox="0 0 100 100">
  <circle cx="50" cy="50" r="50" fill="#dd6b20"/>
  <polygon points="22,48 33,12 47,44" fill="#dd6b20"/>
  <polygon points="53,44 67,12 78,48" fill="#dd6b20"/>
  <polygon points="26,47 33,18 44,44" fill="#1a202c"/>
  <polygon points="56,44 67,18 74,47" fill="#1a202c"/>
  <circle cx="50" cy="55" r="29" fill="#dd6b20"/>
  <ellipse cx="50" cy="66" rx="17" ry="14" fill="#fffbeb"/>
  <circle cx="40" cy="49" r="5.5" fill="#fffbeb"/>
  <circle cx="60" cy="49" r="5.5" fill="#fffbeb"/>
  <circle cx="40" cy="50" r="3.5" fill="#744210"/>
  <circle cx="60" cy="50" r="3.5" fill="#744210"/>
  <circle cx="40.8" cy="49.3" r="1.8" fill="#1a202c"/>
  <circle cx="60.8" cy="49.3" r="1.8" fill="#1a202c"/>
  <circle cx="41.4" cy="48.8" r="0.8" fill="#fff"/>
  <circle cx="61.4" cy="48.8" r="0.8" fill="#fff"/>
  <ellipse cx="50" cy="62" rx="4.5" ry="3.5" fill="#1a202c"/>
  <path d="M45 67 Q50 72 55 67" stroke="#9c4221" stroke-width="2" fill="none" stroke-linecap="round"/>
</svg>
