<svg xmlns="http://www.w3.org/2000/svg" viewBox="0 0 100 100">
  <circle cx="50" cy="50" r="50" fill="#276749"/>
  <!-- jersey -->
  <ellipse cx="50" cy="78" rx="34" ry="22" fill="#f6e05e"/>
  <!-- face -->
  <circle cx="50" cy="48" r="22" fill="#fbd38d"/>
  <!-- gloves left -->
  <ellipse cx="16" cy="62" rx="10" ry="8" fill="#f6e05e"/>
  <ellipse cx="12" cy="56" rx="5" ry="4" fill="#e0c800"/>
  <!-- gloves right -->
  <ellipse cx="84" cy="62" rx="10" ry="8" fill="#f6e05e"/>
  <ellipse cx="88" cy="56" rx="5" ry="4" fill="#e0c800"/>
  <!-- eyes focused/squinting -->
  <ellipse cx="41" cy="45" rx="5" ry="4" fill="#fff"/>
  <ellipse cx="59" cy="45" rx="5" ry="4" fill="#fff"/>
  <circle cx="41" cy="46" r="3" fill="#3d1f00"/>
  <circle cx="59" cy="46" r="3" fill="#3d1f00"/>
  <circle cx="41.8" cy="45.2" r="1.2" fill="#fff"/>
  <circle cx="59.8" cy="45.2" r="1.2" fill="#fff"/>
  <!-- determined brow lines -->
  <path d="M36 41 Q41 38 46 41" stroke="#8b5e3c" stroke-width="2" fill="none" stroke-linecap="round"/>
  <path d="M54 41 Q59 38 64 41" stroke="#8b5e3c" stroke-width="2" fill="none" stroke-linecap="round"/>
  <!-- mouth determined -->
  <path d="M43 57 Q50 54 57 57" stroke="#8b5e3c" stroke-width="2" fill="none" stroke-linecap="round"/>
</svg>
