<svg xmlns="http://www.w3.org/2000/svg" viewBox="0 0 100 100">
  <circle cx="50" cy="50" r="50" fill="#2c7a7b"/>
  <line x1="50" y1="16" x2="50" y2="28" stroke="#e2e8f0" stroke-width="3.5"/>
  <circle cx="50" cy="13" r="5" fill="#fc8181"/>
  <rect x="22" y="28" width="56" height="46" rx="10" fill="#e2e8f0"/>
  <rect x="30" y="38" width="17" height="13" rx="4" fill="#2c7a7b"/>
  <rect x="53" y="38" width="17" height="13" rx="4" fill="#2c7a7b"/>
  <circle cx="38.5" cy="44.5" r="4.5" fill="#68d391"/>
  <circle cx="61.5" cy="44.5" r="4.5" fill="#68d391"/>
  <circle cx="38.5" cy="44.5" r="2" fill="#fff"/>
  <circle cx="61.5" cy="44.5" r="2" fill="#fff"/>
  <rect x="30" y="58" width="40" height="10" rx="4" fill="#a0aec0"/>
  <rect x="33" y="60" width="7" height="6" rx="2" fill="#2c7a7b"/>
  <rect x="42" y="60" width="7" height="6" rx="2" fill="#2c7a7b"/>
  <rect x="51" y="60" width="7" height="6" rx="2" fill="#2c7a7b"/>
  <rect x="60" y="60" width="7" height="6" rx="2" fill="#2c7a7b"/>
  <rect x="15" y="40" width="9" height="16" rx="4" fill="#a0aec0"/>
  <rect x="76" y="40" width="9" height="16" rx="4" fill="#a0aec0"/>
</svg>
