<svg xmlns="http://www.w3.org/2000/svg" viewBox="0 0 100 100">
  <circle cx="50" cy="50" r="50" fill="#1a365d"/>
  <circle cx="20" cy="18" r="2" fill="#fff"/>
  <circle cx="76" cy="14" r="2.5" fill="#fff"/>
  <circle cx="84" cy="36" r="1.5" fill="#fff"/>
  <circle cx="14" cy="66" r="2" fill="#fff"/>
  <circle cx="82" cy="72" r="1.5" fill="#fff"/>
  <circle cx="30" cy="78" r="1" fill="#fff"/>
  <ellipse cx="50" cy="84" rx="9" ry="7" fill="#f6ad55"/>
  <ellipse cx="50" cy="88" rx="6" ry="9" fill="#fc8181"/>
  <rect x="37" y="40" width="26" height="38" rx="5" fill="#e2e8f0"/>
  <path d="M37,42 Q50,12 63,42Z" fill="#fc8181"/>
  <circle cx="50" cy="57" r="9" fill="#63b3ed"/>
  <circle cx="50" cy="57" r="6.5" fill="#90cdf4"/>
  <circle cx="47.5" cy="54.5" r="2.5" fill="#fff" opacity="0.7"/>
  <polygon points="37,72 25,84 37,78" fill="#fc8181"/>
  <polygon points="63,72 75,84 63,78" fill="#fc8181"/>
</svg>
