<svg xmlns="http://www.w3.org/2000/svg" viewBox="0 0 100 100">
  <circle cx="50" cy="50" r="50" fill="#2a4365"/>
  <!-- jersey -->
  <ellipse cx="50" cy="78" rx="32" ry="22" fill="#c53030"/>
  <line x1="50" y1="56" x2="50" y2="96" stroke="#fff" stroke-width="3"/>
  <!-- rugby ball -->
  <ellipse cx="76" cy="64" rx="13" ry="9" fill="#8b5e3c" transform="rotate(-30 76 64)"/>
  <ellipse cx="76" cy="64" rx="13" ry="9" fill="none" stroke="#5d3a1a" stroke-width="1.5" transform="rotate(-30 76 64)"/>
  <line x1="70" y1="57" x2="82" y2="71" stroke="#fff" stroke-width="1.5"/>
  <!-- scrum cap/helmet -->
  <ellipse cx="50" cy="38" rx="22" ry="18" fill="#8b5e3c"/>
  <ellipse cx="50" cy="30" rx="20" ry="12" fill="#6b4226"/>
  <path d="M28,40 Q50,52 72,40" fill="#6b4226"/>
  <rect x="30" y="44" width="40" height="7" rx="3" fill="#4a2c0a"/>
  <!-- eyes fierce -->
  <circle cx="40" cy="44" r="5" fill="#fff"/>
  <circle cx="60" cy="44" r="5" fill="#fff"/>
  <circle cx="40" cy="45" r="3" fill="#3d1f00"/>
  <circle cx="60" cy="45" r="3" fill="#3d1f00"/>
  <circle cx="40.8" cy="44.2" r="1.2" fill="#fff"/>
  <circle cx="60.8" cy="44.2" r="1.2" fill="#fff"/>
  <!-- mouth set firm -->
  <path d="M42 53 Q50 50 58 53" stroke="#3d1f00" stroke-width="2" fill="none" stroke-linecap="round"/>
</svg>
