<svg xmlns="http://www.w3.org/2000/svg" viewBox="0 0 100 100">
  <defs>
    <clipPath id="c"><circle cx="50" cy="50" r="50"/></clipPath>
    <radialGradient id="bg" cx="50%" cy="30%" r="70%">
      <stop offset="0%" stop-color="#1D4ED8"/>
      <stop offset="100%" stop-color="#0F172A"/>
    </radialGradient>
    <radialGradient id="face" cx="40%" cy="35%" r="65%">
      <stop offset="0%" stop-color="#FEF3C7"/>
      <stop offset="100%" stop-color="#FDE68A"/>
    </radialGradient>
    <radialGradient id="ball" cx="35%" cy="30%" r="65%">
      <stop offset="0%" stop-color="#D97706"/>
      <stop offset="100%" stop-color="#78350F"/>
    </radialGradient>
  </defs>
  <g clip-path="url(#c)">
    <circle cx="50" cy="50" r="50" fill="url(#bg)"/>
    <!-- red jersey -->
    <path d="M4,100 Q4,66 50,60 Q96,66 96,100Z" fill="#DC2626"/>
    <path d="M4,100 Q4,72 50,66 Q96,72 96,100Z" fill="#B91C1C"/>
    <line x1="50" y1="62" x2="50" y2="100" stroke="#fff" stroke-width="4"/>
    <!-- rugby ball held up top-right -->
    <ellipse cx="76" cy="28" rx="15" ry="10" fill="url(#ball)" transform="rotate(-30 76 28)"/>
    <line x1="68" y1="20" x2="84" y2="36" stroke="#fff" stroke-width="2"/>
    <line x1="70" y1="18" x2="86" y2="34" stroke="#D97706" stroke-width="1" opacity="0.5"/>
    <!-- face -->
    <ellipse cx="46" cy="44" rx="24" ry="23" fill="url(#face)"/>
    <!-- gum shield / mouthguard — distinctive rugby detail -->
    <rect x="36" y="54" width="22" height="7" rx="3" fill="#fff"/>
    <rect x="38" y="55" width="18" height="5" rx="2" fill="#BFDBFE"/>
    <!-- tough eyes -->
    <ellipse cx="37" cy="40" rx="7" ry="6.5" fill="#fff"/>
    <ellipse cx="57" cy="40" rx="7" ry="6.5" fill="#fff"/>
    <circle cx="37.5" cy="40.5" r="4.5" fill="#1A1A2E"/>
    <circle cx="57.5" cy="40.5" r="4.5" fill="#1A1A2E"/>
    <circle cx="38.6" cy="39.3" r="1.8" fill="#fff"/>
    <circle cx="58.6" cy="39.3" r="1.8" fill="#fff"/>
    <!-- bruised/battle-worn brow -->
    <path d="M30 34 Q37 30 44 34" stroke="#D97706" stroke-width="3" fill="none" stroke-linecap="round"/>
    <path d="M50 34 Q57 30 64 34" stroke="#D97706" stroke-width="3" fill="none" stroke-linecap="round"/>
    <!-- mud smear -->
    <path d="M58 46 Q64 44 68 48" stroke="#78350F" stroke-width="3" fill="none" stroke-linecap="round" opacity="0.5"/>
  </g>
</svg>
