<svg xmlns="http://www.w3.org/2000/svg" viewBox="0 0 100 100">
  <circle cx="50" cy="50" r="50" fill="#c53030"/>
  <!-- jersey -->
  <ellipse cx="50" cy="78" rx="32" ry="22" fill="#fff"/>
  <!-- football -->
  <circle cx="74" cy="70" r="13" fill="#fff"/>
  <circle cx="74" cy="70" r="13" fill="none" stroke="#1a202c" stroke-width="1.5"/>
  <polygon points="74,60 68,65 70,73 78,73 80,65" fill="#1a202c"/>
  <line x1="74" y1="60" x2="74" y2="57" stroke="#1a202c" stroke-width="1.2"/>
  <line x1="68" y1="65" x2="65" y2="63" stroke="#1a202c" stroke-width="1.2"/>
  <line x1="80" y1="65" x2="83" y2="63" stroke="#1a202c" stroke-width="1.2"/>
  <line x1="70" y1="73" x2="68" y2="76" stroke="#1a202c" stroke-width="1.2"/>
  <line x1="78" y1="73" x2="80" y2="76" stroke="#1a202c" stroke-width="1.2"/>
  <!-- face -->
  <circle cx="46" cy="46" r="22" fill="#fbd38d"/>
  <!-- eyes excited -->
  <circle cx="38" cy="43" r="5.5" fill="#fff"/>
  <circle cx="54" cy="43" r="5.5" fill="#fff"/>
  <circle cx="38" cy="44" r="3.5" fill="#3d1f00"/>
  <circle cx="54" cy="44" r="3.5" fill="#3d1f00"/>
  <circle cx="38.8" cy="43.2" r="1.4" fill="#fff"/>
  <circle cx="54.8" cy="43.2" r="1.4" fill="#fff"/>
  <!-- big grin -->
  <path d="M38 54 Q46 62 54 54" stroke="#3d1f00" stroke-width="2" fill="none" stroke-linecap="round"/>
  <path d="M38 54 Q46 60 54 54" fill="#c53030"/>
</svg>
