<svg xmlns="http://www.w3.org/2000/svg" viewBox="0 0 100 100">
  <circle cx="50" cy="50" r="50" fill="#44337a"/>
  <circle cx="50" cy="60" r="32" fill="#6b46c1"/>
  <circle cx="50" cy="52" r="22" fill="#fbd38d"/>
  <polygon points="50,4 31,52 69,52" fill="#553c9a"/>
  <rect x="27" y="50" width="46" height="8" rx="4" fill="#6b46c1"/>
  <circle cx="58" cy="28" r="3.5" fill="#f6e05e"/>
  <circle cx="44" cy="40" r="2.5" fill="#f6e05e"/>
  <circle cx="62" cy="40" r="2" fill="#f6e05e"/>
  <circle cx="50" cy="22" r="2" fill="#f6e05e"/>
  <circle cx="41" cy="48" r="5.5" fill="#fff"/>
  <circle cx="59" cy="48" r="5.5" fill="#fff"/>
  <circle cx="41" cy="49" r="3.5" fill="#2d3748"/>
  <circle cx="59" cy="49" r="3.5" fill="#2d3748"/>
  <circle cx="41.8" cy="48.2" r="1.4" fill="#fff"/>
  <circle cx="59.8" cy="48.2" r="1.4" fill="#fff"/>
  <ellipse cx="50" cy="64" rx="12" ry="7" fill="#e2e8f0"/>
  <path d="M40 59 Q50 56 60 59" stroke="#cbd5e0" stroke-width="3.5" fill="none" stroke-linecap="round"/>
</svg>
